# xmcd CD database file
#
# Track frame offsets:
#	150
#	15552
#	28805
#	41942
#	54155
#	77092
#	90130
#	103570
#	116432
#	131410
#	143727
#	166202
#	176325
#	188347
#
# Disc length: 2761 seconds
#
# Revision: 0
# Processed by: cddbd v1.5.2PL0 Copyright (c) Steve Scherf et al.
# Submitted via: CDex 1.51
#
DISCID=9e0ac70e
DTITLE=Blue Drive - Wants to be loved
DYEAR=2002
DGENRE=Country
TTITLE0=hard way
TTITLE1=baby whatcha want me to do
TTITLE2=hey hey
TTITLE3=shame shame shame
TTITLE4=you keep sayin' that you leavin'
TTITLE5=hideaway
TTITLE6=come on in my kitchen
TTITLE7=tell me mama
TTITLE8=kind hearded woman
TTITLE9=just a little bit
TTITLE10=it's my on fault
TTITLE11=hi heel sneakers
TTITLE12=i want to be loved
TTITLE13=help me
EXTD=YEAR: 2002
EXTT0=
EXTT1=
EXTT2=
EXTT3=
EXTT4=
EXTT5=
EXTT6=
EXTT7=
EXTT8=
EXTT9=
EXTT10=
EXTT11=
EXTT12=
EXTT13=
PLAYORDER=
